<svg width="40" height="40" viewBox="0 0 40 40" fill="none" xmlns="http://www.w3.org/2000/svg">
<path d="M33.6068 11.3998C28.82 3.99976 19.047 1.79974 11.4678 6.39977C4.08818 10.9998 1.69478 20.9999 6.48159 28.3999L6.88049 28.9999L5.28489 35L11.2684 33.4L11.8667 33.8C14.4596 35.2 17.2519 36 20.0442 36C23.036 36 26.0277 35.2 28.6206 33.6C36.0002 28.7999 38.1942 18.9999 33.6068 11.3998ZM29.4184 26.7999C28.6206 27.9999 27.6233 28.7999 26.2272 28.9999C25.4294 28.9999 24.4321 29.3999 20.4431 27.7999C17.0525 26.1999 14.2602 23.5999 12.2656 20.5999C11.0689 19.1999 10.4706 17.3999 10.2711 15.5998C10.2711 13.9998 10.8695 12.5998 11.8667 11.5998C12.2656 11.1998 12.6645 10.9998 13.0635 10.9998H14.0607C14.4596 10.9998 14.8585 10.9998 15.058 11.7998C15.4569 12.7998 16.4541 15.1998 16.4541 15.3998C16.6536 15.5998 16.6536 15.9998 16.4541 16.1999C16.6536 16.5999 16.4541 16.9999 16.2547 17.1999C16.0552 17.3999 15.8558 17.7999 15.6563 17.9999C15.2574 18.1999 15.058 18.5999 15.2574 18.9999C16.0552 20.1999 17.0525 21.3999 18.0497 22.3999C19.2464 23.3999 20.4431 24.1999 21.8393 24.7999C22.2382 24.9999 22.6371 24.9999 22.8365 24.5999C23.036 24.1999 24.0332 23.1999 24.4321 22.7999C24.831 22.3999 25.0305 22.3999 25.4294 22.5999L28.6206 24.1999C29.0195 24.3999 29.4184 24.5999 29.6178 24.7999C29.8173 25.3999 29.8173 26.1999 29.4184 26.7999Z" fill="black"/>
</svg>
