<svg width="40" height="40" viewBox="0 0 40 40" fill="none" xmlns="http://www.w3.org/2000/svg">
<g clip-path="url(#clip0_283_137)">
<path d="M30 36.25H10C8.3424 36.25 6.75269 35.5915 5.58058 34.4194C4.40848 33.2473 3.75 31.6576 3.75 30V12.5C3.75 10.8424 4.40848 9.25269 5.58058 8.08058C6.75269 6.90848 8.3424 6.25 10 6.25H30C31.6576 6.25 33.2473 6.90848 34.4194 8.08058C35.5915 9.25269 36.25 10.8424 36.25 12.5V30C36.25 31.6576 35.5915 33.2473 34.4194 34.4194C33.2473 35.5915 31.6576 36.25 30 36.25ZM10 8.75C9.00544 8.75 8.05161 9.14509 7.34835 9.84835C6.64509 10.5516 6.25 11.5054 6.25 12.5V30C6.25 30.9946 6.64509 31.9484 7.34835 32.6517C8.05161 33.3549 9.00544 33.75 10 33.75H30C30.9946 33.75 31.9484 33.3549 32.6517 32.6517C33.3549 31.9484 33.75 30.9946 33.75 30V12.5C33.75 11.5054 33.3549 10.5516 32.6517 9.84835C31.9484 9.14509 30.9946 8.75 30 8.75H10Z" fill="black"/>
<path d="M30 31.25H25C24.6685 31.25 24.3505 31.1183 24.1161 30.8839C23.8817 30.6495 23.75 30.3315 23.75 30V25C23.75 24.6685 23.8817 24.3505 24.1161 24.1161C24.3505 23.8817 24.6685 23.75 25 23.75H30C30.3315 23.75 30.6495 23.8817 30.8839 24.1161C31.1183 24.3505 31.25 24.6685 31.25 25V30C31.25 30.3315 31.1183 30.6495 30.8839 30.8839C30.6495 31.1183 30.3315 31.25 30 31.25ZM26.25 28.75H28.75V26.25H26.25V28.75Z" fill="black"/>
<path d="M35 16.25H5C4.66848 16.25 4.35054 16.1183 4.11612 15.8839C3.8817 15.6495 3.75 15.3315 3.75 15C3.75 14.6685 3.8817 14.3505 4.11612 14.1161C4.35054 13.8817 4.66848 13.75 5 13.75H35C35.3315 13.75 35.6495 13.8817 35.8839 14.1161C36.1183 14.3505 36.25 14.6685 36.25 15C36.25 15.3315 36.1183 15.6495 35.8839 15.8839C35.6495 16.1183 35.3315 16.25 35 16.25Z" fill="black"/>
<path d="M13.75 11.25C13.4185 11.25 13.1005 11.1183 12.8661 10.8839C12.6317 10.6495 12.5 10.3315 12.5 10V5C12.5 4.66848 12.6317 4.35054 12.8661 4.11612C13.1005 3.8817 13.4185 3.75 13.75 3.75C14.0815 3.75 14.3995 3.8817 14.6339 4.11612C14.8683 4.35054 15 4.66848 15 5V10C15 10.3315 14.8683 10.6495 14.6339 10.8839C14.3995 11.1183 14.0815 11.25 13.75 11.25Z" fill="black"/>
<path d="M26.25 11.25C25.9185 11.25 25.6005 11.1183 25.3661 10.8839C25.1317 10.6495 25 10.3315 25 10V5C25 4.66848 25.1317 4.35054 25.3661 4.11612C25.6005 3.8817 25.9185 3.75 26.25 3.75C26.5815 3.75 26.8995 3.8817 27.1339 4.11612C27.3683 4.35054 27.5 4.66848 27.5 5V10C27.5 10.3315 27.3683 10.6495 27.1339 10.8839C26.8995 11.1183 26.5815 11.25 26.25 11.25Z" fill="black"/>
</g>
<defs>
<clipPath id="clip0_283_137">
<rect width="40" height="40" fill="white"/>
</clipPath>
</defs>
</svg>
