<svg width="17" height="17" viewBox="0 0 17 17" fill="none" xmlns="http://www.w3.org/2000/svg">
<circle cx="8.5" cy="8.5" r="8.5" fill="#FFF61A"/>
<path d="M10.0673 7.12753C10.171 7.04483 10.309 6.99911 10.4522 7.00001C10.5953 7.00092 10.7324 7.04839 10.8346 7.13239C10.9368 7.2164 10.996 7.33038 10.9998 7.45027C11.0036 7.57017 10.9516 7.68661 10.8549 7.77503L7.91814 10.8522C7.86764 10.8978 7.80669 10.9343 7.73894 10.9597C7.67119 10.9851 7.59802 10.9988 7.52381 10.9999C7.44961 11.0011 7.37589 10.9897 7.30706 10.9664C7.23823 10.9431 7.17571 10.9085 7.12323 10.8645L5.1757 9.23282C5.12146 9.19048 5.07796 9.13942 5.04779 9.08269C5.01762 9.02595 5.00139 8.96471 5.00009 8.90261C4.99878 8.84051 5.01241 8.77883 5.04018 8.72124C5.06794 8.66365 5.10926 8.61133 5.16168 8.56742C5.2141 8.5235 5.27654 8.48888 5.34528 8.46561C5.41402 8.44235 5.48764 8.43093 5.56176 8.43203C5.63588 8.43312 5.70898 8.44671 5.77669 8.47199C5.84441 8.49727 5.90535 8.53372 5.95589 8.57916L7.49713 9.86984L10.0534 7.14109C10.058 7.13635 10.0629 7.13182 10.0681 7.12753H10.0673Z" fill="black"/>
</svg>
