<svg width="12" height="10" viewBox="0 0 12 10" fill="none" xmlns="http://www.w3.org/2000/svg">
<path d="M10.0702 0.376488C10.2642 0.191788 10.5223 0.0896777 10.7902 0.0917044C11.0581 0.0937312 11.3146 0.199736 11.5058 0.387352C11.697 0.574967 11.8079 0.829518 11.8149 1.09729C11.822 1.36506 11.7248 1.62512 11.5438 1.82257L6.04867 8.69491C5.95418 8.79669 5.84013 8.87836 5.71336 8.93506C5.58658 8.99175 5.44967 9.02229 5.31082 9.02486C5.17197 9.02744 5.03402 9.00198 4.90524 8.95002C4.77645 8.89806 4.65946 8.82066 4.56126 8.72246L0.917134 5.07833C0.81565 4.98376 0.734254 4.86973 0.677798 4.74303C0.621343 4.61632 0.590987 4.47955 0.58854 4.34086C0.586093 4.20217 0.611606 4.0644 0.663556 3.93579C0.715506 3.80717 0.79283 3.69034 0.890914 3.59225C0.988998 3.49417 1.10583 3.41684 1.23445 3.36489C1.36307 3.31294 1.50083 3.28743 1.63952 3.28988C1.77821 3.29232 1.91498 3.32268 2.04169 3.37914C2.16839 3.43559 2.28243 3.51699 2.37699 3.61847L5.26089 6.501L10.044 0.406788C10.0526 0.396184 10.0618 0.386069 10.0715 0.376488H10.0702Z" fill="#047CA7"/>
</svg>
