<svg width="40" height="40" viewBox="0 0 40 40" fill="none" xmlns="http://www.w3.org/2000/svg">
<path d="M36.5999 28.2422C35.8912 27.9115 35.0092 27.5 33.3926 27.5C31.7759 27.5 30.8939 27.9116 30.1853 28.2422C29.5773 28.5259 29.0972 28.75 28.0351 28.75C26.973 28.75 26.493 28.5259 25.8851 28.2422C25.1764 27.9116 24.2945 27.5 22.6779 27.5C21.0613 27.5 20.1794 27.9116 19.4708 28.2422C18.8629 28.5259 18.3828 28.75 17.3209 28.75C16.2589 28.75 15.7789 28.5259 15.1711 28.2422C14.4625 27.9116 13.5806 27.5 11.9641 27.5C10.3475 27.5 9.46555 27.9116 8.75695 28.2422C8.14906 28.5259 7.66898 28.75 6.60703 28.75C5.54508 28.75 5.065 28.5259 4.45711 28.2422C3.74852 27.9116 2.86656 27.5 1.25 27.5V30C2.31195 30 2.79203 30.2241 3.39992 30.5078C4.10852 30.8384 4.99047 31.25 6.60703 31.25C8.22359 31.25 9.10555 30.8384 9.81414 30.5078C10.422 30.2241 10.9021 30 11.9641 30C13.026 30 13.506 30.2241 14.1138 30.5078C14.8224 30.8384 15.7043 31.25 17.3209 31.25C18.9374 31.25 19.8194 30.8384 20.528 30.5078C21.1359 30.2241 21.616 30 22.6779 30C23.7398 30 24.22 30.2241 24.8279 30.5078C25.5366 30.8384 26.4184 31.25 28.0351 31.25C29.6517 31.25 30.5338 30.8384 31.2424 30.5078C31.8503 30.2241 32.3305 30 33.3926 30C34.4546 30 34.9348 30.2241 35.5427 30.5078C36.2514 30.8385 37.1334 31.25 38.75 31.25V28.75C37.688 28.75 37.2077 28.5259 36.5999 28.2422Z" fill="black"/>
<path d="M33.3926 35C31.7759 35 30.8939 35.4116 30.1853 35.7422C29.5773 36.0259 29.0972 36.25 28.0351 36.25C26.973 36.25 26.493 36.0259 25.8851 35.7422C25.1764 35.4116 24.2945 35 22.6779 35C21.0613 35 20.1794 35.4116 19.4708 35.7422C18.8629 36.0259 18.3828 36.25 17.3209 36.25C16.2589 36.25 15.7789 36.0259 15.1711 35.7422C14.4625 35.4116 13.5806 35 11.9641 35C10.3475 35 9.46555 35.4116 8.75695 35.7422C8.14906 36.0259 7.66898 36.25 6.60703 36.25C5.54508 36.25 5.065 36.0259 4.45711 35.7422C3.74852 35.4116 2.86656 35 1.25 35V37.5C2.31195 37.5 2.79203 37.7241 3.39992 38.0078C4.10852 38.3384 4.99047 38.75 6.60703 38.75C8.22359 38.75 9.10555 38.3384 9.81414 38.0078C10.422 37.7241 10.9021 37.5 11.9641 37.5C13.026 37.5 13.506 37.7241 14.1138 38.0078C14.8224 38.3384 15.7043 38.75 17.3209 38.75C18.9374 38.75 19.8194 38.3384 20.528 38.0078C21.1359 37.7241 21.616 37.5 22.6779 37.5C23.7398 37.5 24.22 37.7241 24.8279 38.0078C25.5366 38.3384 26.4184 38.75 28.0351 38.75C29.6517 38.75 30.5338 38.3384 31.2424 38.0078C31.8503 37.7241 32.3305 37.5 33.3926 37.5C34.4546 37.5 34.9348 37.7241 35.5427 38.0078C36.2514 38.3385 37.1334 38.75 38.75 38.75V36.25C37.688 36.25 37.2077 36.0259 36.5999 35.7422C35.8912 35.4116 35.0092 35 33.3926 35Z" fill="black"/>
<path d="M19.375 21.25H30.625V25.625H33.125V9.05297C33.124 8.29423 33.3542 7.55319 33.7848 6.92852L37.6888 1.25H34.6549L31.7247 5.51219C31.007 6.55333 30.6234 7.7884 30.625 9.05297V12.5H19.375V9.05297C19.374 8.29423 19.6042 7.55319 20.0349 6.92852L23.9388 1.25H20.9049L17.9747 5.51219C17.257 6.55333 16.8734 7.7884 16.875 9.05297V25.625H19.375V21.25ZM19.375 15H30.625V18.75H19.375V15Z" fill="black"/>
</svg>
